<svg width="1024" height="1024" viewBox="0 0 1024 1024" fill="none" xmlns="http://www.w3.org/2000/svg">
<rect width="1024" height="1024" fill="black"/>
<path d="M459.753 276.797H656.425V339.965H912V94H459.753V276.797Z" fill="#FF8412"/>
<path d="M572.588 711.203H375.876V648.035H120.301V894H572.588V711.203Z" fill="#FF8412"/>
<path d="M904.719 654.701C904.719 654.701 700.031 654.589 700.031 654.701C696.428 638.741 647.888 587.187 463.443 580.781C192.645 571.339 111.677 418.965 112.001 339.687L328.671 339.949C331.789 370.034 356.727 403.229 470.568 407.2C644.568 413.232 767.518 452.31 836.017 523.383C880.347 569.503 907.552 621.394 904.719 654.701Z" fill="#FF8412"/>
</svg>
