<svg width="1644" height="388" viewBox="0 0 1644 388" fill="none" xmlns="http://www.w3.org/2000/svg">
<path d="M778.39 277.352V174.451L839.634 116.766H910.456V174.451H839.634V276.045C839.634 287.959 842.107 296.022 847.072 300.234C852.028 304.447 858.437 306.548 866.32 306.548C870.397 306.548 874.566 306.337 878.805 305.905C883.013 305.472 887.172 304.668 891.269 303.502L900.03 348.391C891.552 351.005 883.316 352.815 875.282 353.83C867.278 354.856 859.618 355.368 852.321 355.368C827.24 355.368 808.639 349.407 796.547 337.493C784.446 325.59 778.39 305.543 778.39 277.352Z" fill="white"/>
<path d="M1129.53 148.61C1119.49 138.29 1107.37 130.374 1093.17 124.842C1078.92 119.32 1062.96 116.554 1045.26 116.554C1027.84 116.554 1012.02 119.32 997.79 124.842C983.565 130.364 971.439 138.29 961.433 148.61C951.427 158.93 943.732 171.573 938.347 186.54C932.982 201.517 930.3 218.304 930.3 236.902C930.3 275.858 940.306 305.791 960.348 326.713C980.37 347.644 1008.68 358.105 1045.26 358.105C1062.68 358.105 1078.5 355.349 1092.71 349.827C1106.95 344.304 1119.08 336.308 1129.08 325.837C1139.09 315.377 1146.79 302.663 1152.17 287.686C1157.53 272.72 1160.22 255.801 1160.22 236.892C1160.22 218.304 1157.6 201.507 1152.39 186.53C1147.14 171.573 1139.51 158.92 1129.53 148.61ZM1084.23 290.523C1075.65 303.025 1062.67 309.261 1045.25 309.261C1027.53 309.261 1014.47 303.096 1006.05 290.734C997.609 278.382 993.43 260.428 993.43 236.892C993.43 213.647 997.7 195.914 1006.26 183.703C1014.84 171.493 1027.82 165.387 1045.24 165.387C1062.66 165.387 1075.65 171.493 1084.22 183.703C1092.76 195.904 1097.05 213.637 1097.05 236.892C1097.06 260.157 1092.78 278.03 1084.23 290.523Z" fill="white"/>
<path d="M1409.29 116.554H1347.71V351.262H1409.29V116.554Z" fill="white"/>
<path d="M1638.96 169.52C1635.64 158.338 1630.23 148.814 1622.84 140.971C1615.42 133.127 1605.61 127.093 1593.41 122.88C1581.44 118.746 1566.89 116.665 1549.87 116.584V116.554H1452.76V190.658H1505.95V161.958H1547.81C1557.82 162.129 1566.58 164.683 1574.01 169.741C1581.71 174.971 1585.58 184.564 1585.58 198.512V209.845L1556.36 211.153C1541.83 211.736 1527.52 213.194 1513.42 215.517C1499.33 217.84 1486.61 221.772 1475.28 227.283C1463.94 232.804 1454.79 240.507 1447.82 250.382C1440.83 260.257 1437.35 273.049 1437.35 288.736C1437.35 300.653 1439.37 310.9 1443.46 319.468C1447.52 328.046 1452.96 335.095 1459.81 340.606C1466.62 346.127 1474.62 350.199 1483.78 352.814C1492.93 355.429 1502.59 356.736 1512.78 356.736C1530.48 356.736 1544.97 353.538 1556.14 347.152C1567.35 340.757 1577.43 332.47 1586.45 322.304V351.074H1644V207.231C1643.98 193.283 1642.3 180.713 1638.96 169.52ZM1585.13 261.283C1585.13 270.585 1583.37 278.358 1579.9 284.593C1576.42 290.848 1571.91 296.007 1566.38 300.069C1556.5 307.34 1543.71 310.97 1528.03 310.97C1518.72 310.97 1511.46 308.788 1506.23 304.434C1501 300.069 1498.37 294.116 1498.37 286.564C1498.37 281.626 1499.09 277.121 1500.57 273.048C1502.01 268.976 1504.85 265.426 1509.05 262.369C1513.28 259.322 1519.3 256.778 1527.14 254.736C1535 252.715 1545.31 251.398 1558.11 250.814L1585.13 249.507V261.283Z" fill="white"/>
<path d="M652.462 165.593L609.681 157.315C593.977 154.13 582.816 149.629 576.279 143.812C569.742 138.005 566.448 129.295 566.448 117.681C566.448 113.321 567.314 109.121 569.057 105.052C570.819 100.983 573.872 97.4268 578.223 94.3726C582.595 91.3285 588.347 88.857 595.488 86.9783C602.54 85.1096 644.234 84.1652 655.204 84.1552L622.545 84.1853H688.695V117.922H741.971V84.1853V61.4397V31.0487H622.565C622.192 31.0487 621.86 31.0186 621.477 31.0186C603.708 31.0186 587.4 32.9777 572.562 36.8958C557.724 40.8241 544.972 46.5507 534.365 54.1057C523.718 61.6507 515.448 71.0946 509.475 82.4171C503.511 93.7397 500.52 106.8 500.52 121.609C500.52 136.428 502.705 149.197 507.077 159.937C511.429 170.677 517.775 179.749 526.075 187.153C534.365 194.548 544.619 200.586 556.848 205.227C569.067 209.869 583.189 213.646 599.205 216.54L639.82 223.944C656.118 227.139 667.319 232.293 673.434 239.406C679.548 246.519 682.6 254.144 682.6 262.262C682.6 268.069 681.664 273.444 679.76 278.377C677.876 283.32 674.753 287.599 670.382 291.226C666.01 294.863 660.349 297.757 653.358 299.937C646.357 302.117 637.775 302.931 627.601 302.931C625.818 302.931 624.287 302.991 622.575 302.931V302.951H557.139V273.374H502.879V302.951V326.379V358.081H622.716C624.781 358.132 626.785 358.081 628.901 358.081C649.258 358.081 667.027 355.243 682.167 350.461C697.307 345.669 709.878 338.998 719.941 330.428C729.974 321.868 737.529 311.852 742.646 300.379C747.723 288.916 750.281 276.357 750.281 262.714C750.281 234.553 742.414 213.003 726.69 198.044C710.996 183.084 686.247 172.274 652.462 165.593Z" fill="white"/>
<path d="M1184.17 350.578H1245.04V174.034H1316.23V116.554H1184.17V350.578Z" fill="white"/>
<rect x="1347.71" y="31.8765" width="61.5851" height="57.4794" fill="white"/>
<path d="M778.39 60.4409H839.975V216.377H778.39V60.4409Z" fill="white"/>
<path d="M778 32H840V216H778V32Z" fill="white"/>
<path d="M156.046 88.6321H244.296V119.26H358.979V0H156.046V88.6321Z" fill="#FF8412"/>
<path d="M206.676 299.26H118.408V268.632H3.72534V387.892H206.676V299.26Z" fill="#FF8412"/>
<path d="M355.71 271.865C355.71 271.865 263.862 271.811 263.862 271.865C262.245 264.126 240.464 239.13 157.7 236.023C36.1873 231.446 -0.144894 157.564 0.000433862 119.125L97.2251 119.252C98.6239 133.84 109.814 149.935 160.897 151.86C238.975 154.785 294.145 173.732 324.882 208.193C344.774 230.555 356.981 255.715 355.71 271.865Z" fill="#FF8412"/>
</svg>
